mtllib materials.mtl
v 0.0801661 -0.2726303 0.08527347
v 0.0801661 0.06736958 0.08527345
v 0.0801661 0.06736958 0.005273387
v 0.0801661 -0.2726303 0.005273446
v -0.07983387 -0.2726307 0.08527348
v -0.07983387 -0.2726307 0.005273387
v -0.07983387 0.06736958 0.005273297
v -0.07983387 0.06736958 0.08527346
v 0.0001661777 0.06736958 0.005273327
v 0.0001661777 -0.2726306 0.005273417
v 0.08016622 -0.3426303 0.02527341
v 0.08016622 -0.2626303 0.02527341
v 0.08016622 -0.2626303 -0.05472659
v 0.000166297 -0.2626303 -0.05472659
v 0.000166297 -0.2626303 0.0252734
v 0.000166297 -0.3426303 0.0252734
v 0.08016622 -0.3426303 -0.03472659
v 0.000166297 -0.3426303 -0.03472659
v 0.0001660585 -0.3426303 -0.08472659
v 0.0001660585 -0.3426303 0.02527341
v 0.0001660585 -0.2626303 0.02527341
v 0.0001660585 -0.2326304 -0.03472659
v -0.07983387 -0.3426303 -0.08472659
v -0.07983387 -0.2326304 -0.03472659
v -0.07983387 -0.2626303 0.0252734
v -0.07983387 -0.3426303 0.0252734
v -0.07983387 -0.3426304 0.0552734
v 0.0001660585 -0.3426304 0.0552734
v 0.0001660585 -0.2626305 0.0652734
v -0.07983387 -0.2626305 0.06527342
v -0.07983387 -0.3426304 0.1052735
v -0.07983387 -0.2626305 0.1452734
v 0.0001660585 -0.2626305 0.1452734
v 0.0001660585 -0.3426304 0.1052734
v 0.000166297 -0.3426303 0.06527342
v 0.08016622 -0.3426303 0.0652734
v 0.08016622 -0.2626303 0.0652734
v 0.000166297 -0.2626303 0.06527342
v 0.000166297 -0.3426303 0.1752734
v 0.000166297 -0.2426304 0.1252734
v 0.08016622 -0.2426304 0.1252734
v 0.08016622 -0.3426303 0.1752734
v 0.0801661 0.02736962 0.1152734
v 0.0801661 0.1873696 0.1152734
v 0.08016622 0.1873696 -0.02472658
v 0.08016622 0.02736962 -0.0247266
v -0.07983387 0.02736962 0.1152734
v -0.07983375 0.02736962 -0.02472664
v -0.07983375 0.1873696 -0.02472661
v -0.07983387 0.1873696 0.1152734
v 0.01016617 0.02736962 -0.03472658
v 0.01016617 0.02736962 -0.01472656
v 0.01016617 0.0473696 -0.01472656
v 0.01016617 0.0473696 -0.03472658
v -0.009833813 0.02736962 -0.03472658
v -0.009833813 0.0473696 -0.03472658
v -0.009833813 0.0473696 -0.01472656
v -0.009833813 0.02736962 -0.01472656
v -0.01871145 0.1375318 -0.01732238
v -0.01867115 0.1475317 -0.01729557
v -0.01864445 0.1475585 -0.02729549
v -0.01868463 0.1375585 -0.02732231
v -0.02871132 0.1375721 -0.017349
v -0.0286845 0.1375988 -0.02734894
v -0.02864432 0.1475987 -0.02732211
v -0.02867103 0.147572 -0.0173222
v 0.03122962 0.1370561 -0.0166591
v 0.03103793 0.1470532 -0.01679546
v 0.03114474 0.146919 -0.02679399
v 0.03133643 0.1369216 -0.02665763
v 0.02123201 0.136863 -0.0167633
v 0.02133882 0.1367285 -0.02676183
v 0.02114713 0.1467259 -0.02689819
v 0.02104032 0.1468601 -0.01689968
v 0.0801661 0.1573696 -0.01472656
v 0.0801661 0.1873696 -0.01472656
v 0.0801661 0.1873696 -0.03472658
v 0.0801661 0.1573696 -0.03472658
v -0.07983387 0.1573696 -0.01472659
v -0.07983387 0.1573696 -0.0347266
v -0.07983387 0.1873696 -0.0347266
v -0.07983387 0.1873696 -0.01472659
v 0.0801661 0.02736962 -0.03472659
v 0.0801661 0.02736962 -0.01472658
v 0.0801661 0.1573696 -0.01472658
v 0.0801661 0.1573696 -0.03472659
v 0.04016614 0.02736962 -0.03472659
v 0.04016614 0.1573696 -0.03472659
v 0.04016614 0.1573696 -0.01472658
v 0.04016614 0.02736962 -0.01472658
v 0.04016614 0.02736962 -0.03472659
v 0.04016614 0.02736962 -0.01472658
v 0.04016614 0.1273696 -0.01472658
v 0.04016614 0.1273696 -0.03472659
v 0.02016616 0.02736962 -0.03472659
v 0.02016616 0.1273696 -0.03472659
v 0.02016616 0.1273696 -0.01472658
v 0.02016616 0.02736962 -0.01472658
v 0.03016615 0.09736967 -0.01472658
v 0.03016615 0.1273696 -0.01472658
v 0.03016615 0.1273696 -0.03472659
v 0.03016615 0.09736967 -0.03472658
v 0.01016617 0.09736967 -0.01472658
v 0.01016617 0.09736967 -0.03472659
v 0.01016617 0.1273696 -0.03472659
v 0.01016617 0.1273696 -0.01472659
v 0.01016617 0.1173697 -0.01472658
v 0.01016617 0.1573696 -0.01472658
v 0.01016617 0.1573696 -0.03472659
v 0.01016617 0.1173697 -0.03472658
v -0.009833813 0.1173697 -0.01472658
v -0.009833813 0.1173697 -0.03472659
v -0.009833813 0.1573696 -0.03472659
v -0.009833813 0.1573696 -0.01472659
v -0.009833813 0.09736967 -0.01472658
v -0.009833813 0.1273696 -0.01472658
v -0.009833813 0.1273696 -0.03472659
v -0.009833813 0.09736967 -0.03472658
v -0.03983378 0.09736967 -0.01472658
v -0.03983378 0.09736967 -0.03472659
v -0.03983378 0.1273696 -0.03472659
v -0.03983378 0.1273696 -0.01472659
v -0.03983378 0.02736962 -0.01472655
v -0.03983378 0.1573696 -0.01472656
v -0.03983378 0.1573696 -0.03472658
v -0.03983378 0.02736962 -0.03472656
v -0.07983375 0.02736962 -0.01472655
v -0.07983375 0.02736962 -0.03472656
v -0.07983375 0.1573696 -0.03472658
v -0.07983375 0.1573696 -0.01472656
v -0.0198338 0.02736962 -0.03472659
v -0.0198338 0.02736962 -0.01472658
v -0.0198338 0.09736967 -0.01472658
v -0.0198338 0.09736967 -0.03472659
v -0.03983378 0.02736962 -0.03472659
v -0.03983378 0.09736967 -0.03472659
v -0.03983378 0.09736967 -0.01472658
v -0.03983378 0.02736962 -0.01472658
vn 1 -2.349588E-14 3.427666E-09
vn -1 4.460966E-14 1.052081E-07
vn 4.634364E-08 7.184882E-08 1
vn 5.473751E-07 -2.190801E-07 -1
vn 2.203859E-06 -1 1.192101E-07
vn 1.750786E-10 1 -2.794117E-09
vn 2.912609E-07 -2.481836E-07 -1
vn 1 -1.942869E-07 1.748456E-07
vn -1 -1.630843E-08 1.1419E-08
vn -2.679779E-07 -1 -3.828519E-07
vn -3.839482E-07 1 -2.863816E-08
vn 4.567657E-08 -0.2425358 -0.9701425
vn -1.651249E-07 -1.699619E-15 1
vn 1 -7.310007E-07 -3.839484E-07
vn -1 -5.534686E-08 1.141899E-08
vn 1 1.022802E-07 -3.34351E-07
vn -1 1.338461E-07 -5.032883E-07
vn 3.050814E-14 -1 -3.548765E-07
vn -3.800962E-08 0.8944276 0.4472129
vn 6.098843E-09 0.4138033 -0.9103664
vn -1.651249E-07 0 1
vn -3.884361E-08 0.1240349 -0.9922779
vn 1.625439E-07 -0.4472137 0.8944271
vn 3.320829E-08 -1 2.583405E-08
vn 6.471665E-08 1 3.839479E-07
vn -1 -3.746349E-07 8.512249E-08
vn 1 -4.263028E-07 6.388905E-08
vn -1 -1.976836E-07 3.791651E-07
vn 1 -2.214115E-07 5.045446E-07
vn -1.192093E-07 9.720678E-09 -1
vn 5.018352E-08 0.4472139 0.8944271
vn -5.783747E-08 -1 3.386627E-07
vn 4.313607E-08 0.9486836 -0.316227
vn -1 1.9135E-07 4.393956E-07
vn 1 9.061252E-09 2.855271E-07
vn 1 -1.866057E-07 6.641974E-07
vn -1 9.347354E-08 -7.589927E-07
vn -1.514381E-07 2.724118E-08 1
vn 1.980042E-07 1.865555E-07 -1
vn 1.78767E-09 -1 -2.192599E-07
vn 1.538772E-09 1 -3.661428E-07
vn 1 9.720679E-09 0
vn -1 -9.720679E-09 0
vn 0 -1 9.720679E-09
vn 0 1 -9.720679E-09
vn -9.720679E-09 0 -1
vn 9.720679E-09 0 1
vn 0.9999883 -0.004030414 0.002664009
vn -0.9999883 0.004030879 -0.002663538
vn -0.002674315 -0.002670522 0.9999928
vn 0.002673991 0.002670932 -0.9999928
vn -0.004024176 -0.9999883 -0.00268078
vn 0.004023736 0.9999883 0.002681271
vn 0.9997592 0.01931179 0.01042174
vn -0.9997592 -0.01931132 -0.01042128
vn -0.01068174 0.01343385 0.9998528
vn 0.01068141 -0.01343345 -0.9998528
vn 0.01916803 -0.9997233 0.01363739
vn -0.01916848 0.9997233 -0.0136369
vn 1 -3.104411E-07 8.605964E-08
vn -1 1.258241E-14 -6.929664E-08
vn -1.661144E-07 1.062872E-07 1
vn 2.097701E-07 1.391553E-07 -1
vn 6.664711E-09 -1 2.607709E-08
vn -4.880712E-08 1 -4.936012E-08
vn 1 7.40312E-08 4.670408E-15
vn -1 4.692312E-09 0
vn -2.328308E-07 -1 9.720508E-09
vn 0 1 5.215386E-08
vn 7.500736E-08 -2.149206E-08 -1
vn 6.200464E-08 -2.149206E-08 1
vn 1 9.624053E-08 6.071528E-15
vn -1 9.264325E-08 -6.071528E-15
vn 0 -1 9.720679E-09
vn 0 1 7.403858E-08
vn -2.048906E-08 -5.587934E-08 -1
vn 2.048906E-08 -5.587933E-08 1
vn 1 -3.104411E-07 8.605961E-08
vn -1 -3.104411E-07 -8.605958E-08
vn -8.171327E-08 2.741194E-07 1
vn 4.542424E-07 -5.875091E-08 -1
vn -7.800224E-09 -1 2.607705E-08
vn 9.720678E-09 1 -1.192093E-07
vn 1 -2.328308E-07 7.92687E-08
vn -1 -2.328308E-07 -7.92687E-08
vn -1.049963E-07 1.990121E-07 1
vn 4.542424E-07 -5.058243E-08 -1
vn 1.396395E-09 -1 -6.705518E-08
vn 9.720678E-09 1 -1.192093E-07
vn 1 -3.104411E-07 8.605961E-08
vn -1 4.429782E-14 2.725834E-09
vn -1.593235E-07 3.607843E-07 1
vn 3.611102E-07 -1.059638E-07 -1
vn 2.972453E-08 -1 2.607705E-08
vn -2.603048E-07 1 -4.936011E-08
vn 1 -1.955594E-14 5.20155E-09
vn -1 -7.164019E-08 -9.202948E-08
vn -1.166378E-07 1.5451E-07 1
vn -4.634371E-08 -9.78695E-08 -1
vn -1.95112E-07 -1 1.192092E-07
vn 2.100425E-07 1 -4.936009E-08
vn 1 1.374864E-07 8.673607E-15
vn -1 1.323474E-07 -8.673607E-15
vn 0 -1 9.720679E-09
vn 0 1 9.59233E-08
vn 5.455001E-09 -7.982758E-08 -1
vn -5.455001E-09 -7.982758E-08 1
vt 0.08695325 0.1406596
vt 0.1067153 0.1683266
vt 0.1002055 0.1729765
vt 0.08044337 0.1453096
vt -0.08695322 0.1406596
vt -0.08044334 0.1453095
vt -0.1002054 0.1729765
vt -0.1067153 0.1683266
vt 0.08675943 0.1954323
vt 0.09391482 0.1811215
vt 0.1243254 0.1963268
vt 0.11717 0.2106376
vt -0.08675942 0.1954323
vt -0.1171699 0.2106376
vt -0.1207476 0.2034822
vt -0.09033711 0.1882769
vt 0.03538268 0.1317769
vt 0.02784874 0.1344676
vt 0.02515805 0.1269337
vt 0.02246736 0.1193998
vt 0.0300013 0.1167091
vt -0.03538259 0.1317766
vt -0.03000121 0.1167087
vt -0.02246726 0.1193994
vt -0.02515795 0.1269334
vt -0.02784865 0.1344673
vt -0.1207476 0.2034822
vt -0.1243254 0.1963268
vt -0.09391481 0.1811215
vt -0.09033711 0.1882769
vt 0.07800218 0.138451
vt 0.08265208 0.1449608
vt 0.07614221 0.1496107
vt -0.07614221 0.1496107
vt -0.08265208 0.1449608
vt -0.07800218 0.138451
vt 0.02408165 0.1358126
vt 0.02139096 0.1282787
vt 0.02704141 0.1262607
vt 0.0297321 0.1337946
vt -0.02219822 0.1364854
vt -0.02973216 0.1337947
vt -0.02704147 0.1262608
vt -0.01950753 0.1289514
vt -0.07041596 0.1969121
vt -0.07757486 0.2010047
vt -0.08154534 0.1940596
vt -0.07438644 0.1899669
vt 0.08049844 0.1923018
vt 0.08407615 0.1851464
vt 0.09123156 0.1887241
vt 0.08765386 0.1958795
vt 0.07614212 0.1496108
vt 0.07311969 0.1419385
vt 0.0780021 0.1384511
vt -0.07800218 0.1384509
vt -0.07311977 0.1419384
vt -0.07614221 0.1496107
vt 0.06905107 0.1448446
vt 0.07800214 0.1384509
vt 0.08265204 0.1449608
vt 0.07951335 0.1508894
vt -0.06905113 0.1448446
vt -0.07951342 0.1508894
vt -0.08265211 0.1449608
vt -0.0780022 0.138451
vt 0.01668225 0.1299604
vt 0.01399156 0.1224265
vt 0.02435072 0.1187268
vt 0.02704141 0.1262607
vt 0.02341175 0.1583694
vt 0.01751669 0.1551681
vt 0.02133444 0.1481378
vt 0.02722951 0.1513391
vt -0.08880372 0.161209
vt -0.1003534 0.1647593
vt -0.102704 0.1571124
vt -0.09115434 0.1535621
vt 0.08407616 0.1851464
vt 0.08765387 0.177991
vt 0.09480928 0.1815687
vt 0.09123157 0.1887241
vt -0.09187882 0.1731957
vt -0.08858476 0.180486
vt -0.09593183 0.1838057
vt -0.09922589 0.1765154
vt 0.09879348 0.1532633
vt 0.1073896 0.1557346
vt 0.1051791 0.1634232
vt 0.09658307 0.1609519
vt 0.02717598 0.1177177
vt 0.0318847 0.1160361
vt 0.03457538 0.12357
vt 0.02986667 0.1252517
vt -0.02811768 0.1173814
vt -0.03080836 0.1249153
vt -0.0383423 0.1222246
vt -0.03565161 0.1146907
vt -0.08044337 0.1367072
vt -0.08590701 0.1426358
vt -0.08451205 0.133801
vt 0.08044335 0.1367073
vt 0.08451202 0.1338011
vt 0.08590698 0.1426359
vt -0.08590698 0.1426358
vt -0.09241685 0.1379859
vt -0.08451202 0.133801
vt 0.08451205 0.133801
vt 0.0924169 0.137986
vt 0.08590703 0.1426359
vt -0.08407617 0.1851465
vt -0.08049846 0.1923019
vt -0.08765387 0.1958796
vt -0.09123157 0.1887241
vt 0.0551616 0.1832103
vt 0.0647193 0.1890111
vt 0.06056852 0.1958501
vt 0.05101082 0.1900492
vt 0.03080845 0.1249153
vt 0.04116761 0.1212156
vt 0.0438583 0.1287496
vt 0.03349913 0.1324493
vt -0.06228197 0.1188185
vt -0.06370454 0.126691
vt -0.0699283 0.1255664
vt -0.06850572 0.1176939
vt -0.08125706 0.136126
vt -0.08590695 0.1426359
vt -0.09195183 0.1407759
vt -0.09020813 0.1297324
vt 0.08125712 0.136126
vt 0.09020819 0.1297324
vt 0.0919519 0.1407759
vt 0.08590703 0.1426359
vt 0.1068316 0.1633279
vt 0.1161315 0.1763476
vt 0.1047392 0.184485
vt 0.09543937 0.1714653
vt -0.1068317 0.1633279
vt -0.0954394 0.1714652
vt -0.1047392 0.184485
vt -0.1161315 0.1763476
vt 0.1135922 0.2088487
vt 0.1207477 0.1945379
vt 0.1350585 0.2016933
vt 0.1279031 0.2160042
vt -0.1135923 0.2088487
vt -0.1279031 0.2160042
vt -0.1350585 0.2016933
vt -0.1207477 0.1945379
vt 0.03820779 0.1307676
vt 0.0250234 0.1354763
vt 0.01964201 0.1204085
vt 0.0328264 0.1156997
vt -0.03820787 0.1307676
vt -0.03282648 0.1156997
vt -0.0196421 0.1204084
vt -0.02502348 0.1354763
vt 0.09462558 0.1720465
vt 0.09625305 0.170884
vt 0.09741553 0.1725115
vt 0.09578806 0.173674
vt -0.09462558 0.1720465
vt -0.09578806 0.173674
vt -0.09741553 0.1725115
vt -0.09625305 0.170884
vt 0.02172733 0.1292204
vt 0.02105466 0.127337
vt 0.02293815 0.1266643
vt 0.02361082 0.1285478
vt -0.02172733 0.1292204
vt -0.02361082 0.1285478
vt -0.02293815 0.1266643
vt -0.02105466 0.127337
vt -0.1167227 0.2025878
vt -0.1185116 0.2034822
vt -0.119406 0.2016933
vt -0.1176172 0.2007989
vt 0.1167227 0.2025878
vt 0.1176172 0.2007989
vt 0.119406 0.2016933
vt 0.1185116 0.2034822
vt 0.1024159 0.1806348
vt 0.1029991 0.1814471
vt 0.1021868 0.1820303
vt 0.1016036 0.181218
vt -0.1024158 0.1806349
vt -0.1016035 0.1812181
vt -0.1021866 0.1820304
vt -0.102999 0.1814473
vt 0.1279201 0.2048046
vt 0.1283705 0.2039118
vt 0.1292633 0.2043623
vt 0.1288129 0.2052551
vt -0.1279201 0.2048046
vt -0.1288129 0.2052551
vt -0.1292634 0.2043622
vt -0.1283706 0.2039118
vt 0.0218251 0.1252801
vt 0.02088489 0.1256207
vt 0.02054431 0.1246804
vt 0.02148453 0.1243399
vt -0.02182506 0.1252802
vt -0.02148448 0.12434
vt -0.02054426 0.1246806
vt -0.02088484 0.1256208
vt 0.1056322 0.175281
vt 0.1062289 0.1760834
vt 0.1054264 0.1766801
vt 0.1048297 0.1758777
vt -0.1056321 0.1752811
vt -0.1048296 0.1758778
vt -0.1054263 0.1766803
vt -0.1062287 0.1760836
vt 0.1248037 0.2099814
vt 0.1252385 0.2090808
vt 0.1261391 0.2095156
vt 0.1257043 0.2104161
vt -0.1248037 0.2099813
vt -0.1257043 0.2104161
vt -0.1261391 0.2095156
vt -0.1252385 0.2090808
vt 0.02690131 0.1335993
vt 0.02596013 0.1339372
vt 0.02562223 0.1329961
vt 0.02656342 0.1326582
vt -0.02690127 0.1335995
vt -0.02656337 0.1326583
vt -0.02562219 0.1329962
vt -0.02596008 0.1339374
vt 0.1038091 0.1814626
vt 0.1055528 0.1839038
vt 0.1039254 0.1850663
vt 0.1021817 0.1826251
vt -0.1038091 0.1814626
vt -0.1021817 0.182625
vt -0.1039254 0.1850662
vt -0.1055529 0.1839037
vt 0.1252198 0.2146625
vt 0.1323752 0.2003517
vt 0.1350585 0.2016933
vt 0.1279031 0.2160042
vt -0.1252198 0.2146625
vt -0.1279031 0.2160042
vt -0.1350585 0.2016933
vt -0.1323752 0.2003517
vt 0.02596517 0.13514
vt 0.02408169 0.1358126
vt 0.01870031 0.1207448
vt 0.02058379 0.1200721
vt -0.02596518 0.13514
vt -0.02058379 0.1200721
vt -0.01870031 0.1207448
vt -0.02408169 0.1358126
vt 0.09462558 0.1720465
vt 0.09625305 0.170884
vt 0.1038092 0.1814625
vt 0.1021817 0.182625
vt -0.09462558 0.1720465
vt -0.1021817 0.182625
vt -0.1038092 0.1814626
vt -0.09625305 0.170884
vt 0.02408168 0.1358126
vt 0.02273633 0.1320456
vt 0.02461982 0.131373
vt 0.02596516 0.1351399
vt -0.02408168 0.1358126
vt -0.02596516 0.13514
vt -0.02461982 0.131373
vt -0.02273633 0.1320457
vt -0.1135923 0.2088487
vt -0.1252198 0.2146625
vt -0.1270087 0.2110848
vt -0.1153811 0.205271
vt 0.1135923 0.2088487
vt 0.1153811 0.2052711
vt 0.1270087 0.2110848
vt 0.1252198 0.2146625
vt 0.09462559 0.1720465
vt 0.09625306 0.170884
vt 0.1020654 0.1790213
vt 0.100438 0.1801838
vt -0.09462556 0.1720465
vt -0.1004379 0.1801839
vt -0.1020654 0.1790214
vt -0.09625302 0.170884
vt 0.02273634 0.1320457
vt 0.02206367 0.1301622
vt 0.02394715 0.1294895
vt 0.02461983 0.131373
vt -0.02273633 0.1320457
vt -0.02461981 0.131373
vt -0.02394714 0.1294895
vt -0.02206366 0.1301622
vt -0.1153811 0.205271
vt -0.1243254 0.2097432
vt -0.1252198 0.2079543
vt -0.1162755 0.2034822
vt 0.1153811 0.205271
vt 0.1162755 0.2034822
vt 0.1252198 0.2079543
vt 0.1243254 0.2097432
vt 0.1003217 0.1765802
vt 0.1020654 0.1790214
vt 0.1004379 0.1801839
vt 0.09869422 0.1777427
vt -0.1003218 0.1765801
vt -0.09869429 0.1777426
vt -0.100438 0.1801838
vt -0.1020655 0.1790213
vt 0.1220893 0.2075071
vt 0.1229837 0.2057182
vt 0.125667 0.2070599
vt 0.1247726 0.2088488
vt -0.1220893 0.2075071
vt -0.1247726 0.2088487
vt -0.125667 0.2070599
vt -0.1229837 0.2057182
vt 0.02428349 0.1304312
vt 0.02240001 0.1311039
vt 0.02172733 0.1292204
vt 0.02361082 0.1285478
vt -0.0242835 0.1304312
vt -0.02361083 0.1285478
vt -0.02172734 0.1292204
vt -0.02240002 0.1311039
vt 0.1014842 0.1782077
vt 0.1038091 0.1814626
vt 0.1021817 0.1826251
vt 0.0998567 0.1793701
vt -0.1014842 0.1782076
vt -0.09985676 0.1793701
vt -0.1021817 0.182625
vt -0.1038092 0.1814625
vt 0.1247726 0.2066127
vt 0.125667 0.2048238
vt 0.1292447 0.2066127
vt 0.1283503 0.2084015
vt -0.1247726 0.2066127
vt -0.1283503 0.2084015
vt -0.1292447 0.2066127
vt -0.125667 0.2048238
vt 0.02361081 0.1285478
vt 0.02172732 0.1292204
vt 0.02105465 0.1273369
vt 0.02293814 0.1266643
vt -0.02361083 0.1285478
vt -0.02293816 0.1266643
vt -0.02105467 0.1273369
vt -0.02172734 0.1292204
vt 0.1003217 0.1765802
vt 0.1020654 0.1790214
vt 0.1004379 0.1801839
vt 0.09869422 0.1777427
vt -0.1003217 0.1765802
vt -0.09869426 0.1777426
vt -0.100438 0.1801839
vt -0.1020654 0.1790214
vt 0.1238782 0.2039294
vt 0.1252198 0.2012461
vt 0.1279031 0.2025878
vt 0.1265614 0.2052711
vt -0.1238782 0.2039294
vt -0.1265614 0.2052711
vt -0.1279031 0.2025878
vt -0.1252198 0.2012461
vt 0.02293815 0.1266643
vt 0.02105467 0.127337
vt 0.02004566 0.1245117
vt 0.02192914 0.1238391
vt -0.02293816 0.1266643
vt -0.02192915 0.1238391
vt -0.02004567 0.1245118
vt -0.02105468 0.127337
vt 0.09625305 0.170884
vt 0.1038092 0.1814626
vt 0.1021817 0.182625
vt 0.09462558 0.1720465
vt -0.09625307 0.170884
vt -0.09462561 0.1720465
vt -0.1021817 0.182625
vt -0.1038092 0.1814626
vt 0.1189588 0.1981156
vt 0.1207476 0.1945379
vt 0.1323752 0.2003517
vt 0.1305864 0.2039294
vt -0.1189588 0.1981156
vt -0.1305864 0.2039294
vt -0.1323752 0.2003517
vt -0.1207477 0.1945379
vt 0.02192914 0.123839
vt 0.02004566 0.1245117
vt 0.01870031 0.1207447
vt 0.0205838 0.1200721
vt -0.02192913 0.123839
vt -0.02058379 0.1200721
vt -0.01870031 0.1207447
vt -0.02004565 0.1245117
vt 0.09462559 0.1720465
vt 0.09625306 0.170884
vt 0.1003217 0.1765801
vt 0.09869426 0.1777426
vt -0.09462556 0.1720465
vt -0.09869423 0.1777427
vt -0.1003217 0.1765802
vt -0.09625303 0.1708841
vt 0.02071832 0.1263952
vt 0.02004565 0.1245117
vt 0.02192914 0.1238391
vt 0.02260181 0.1257226
vt -0.02071831 0.1263952
vt -0.02260179 0.1257226
vt -0.02192912 0.1238391
vt -0.02004564 0.1245117
vt -0.1180644 0.1999045
vt -0.1243254 0.203035
vt -0.1252198 0.2012461
vt -0.1189588 0.1981156
vt 0.1180644 0.1999045
vt 0.1189588 0.1981156
vt 0.1252198 0.2012461
vt 0.1243254 0.203035
o group137381050
g mesh137381050
usemtl mat10
f 4/4/1 3/3/1 2/2/1 1/1/1
f 8/8/2 7/7/2 6/6/2 5/5/2
f 2/12/3 8/11/3 5/10/3 1/9/3
f 10/16/4 9/15/4 3/14/4 4/13/4
f 5/21/5 6/20/5 10/19/5 4/18/5 1/17/5
f 3/26/6 9/25/6 7/24/6 8/23/6 2/22/6
f 10/30/7 6/29/7 7/28/7 9/27/7
o group1079108867
g mesh1079108867
usemtl mat10
f 13/33/8 12/32/8 11/31/8
f 16/36/9 15/35/9 14/34/9
f 11/40/10 16/39/10 18/38/10 17/37/10
f 14/44/11 15/43/11 12/42/11 13/41/11
f 18/48/12 14/47/12 13/46/12 17/45/12
f 12/52/13 15/51/13 16/50/13 11/49/13
f 11/55/14 17/54/14 13/53/14
f 14/58/15 18/57/15 16/56/15
o group1381788076
g mesh1381788076
usemtl mat10
f 22/62/16 21/61/16 20/60/16 19/59/16
f 26/66/17 25/65/17 24/64/17 23/63/17
f 20/70/18 26/69/18 23/68/18 19/67/18
f 24/74/19 25/73/19 21/72/19 22/71/19
f 23/78/20 24/77/20 22/76/20 19/75/20
f 21/82/21 25/81/21 26/80/21 20/79/21
o group14267321
g mesh14267321
usemtl mat10
f 30/86/22 29/85/22 28/84/22 27/83/22
f 34/90/23 33/89/23 32/88/23 31/87/23
f 28/94/24 34/93/24 31/92/24 27/91/24
f 32/98/25 33/97/25 29/96/25 30/95/25
f 31/101/26 30/100/26 27/99/26
f 29/104/27 34/103/27 28/102/27
f 31/107/28 32/106/28 30/105/28
f 29/110/29 33/109/29 34/108/29
o group136961553
g mesh136961553
usemtl mat10
f 38/114/30 37/113/30 36/112/30 35/111/30
f 42/118/31 41/117/31 40/116/31 39/115/31
f 36/122/32 42/121/32 39/120/32 35/119/32
f 40/126/33 41/125/33 37/124/33 38/123/33
f 39/130/34 40/129/34 38/128/34 35/127/34
f 37/134/35 41/133/35 42/132/35 36/131/35
o group2040827478
g mesh2040827478
usemtl mat10
f 46/138/36 45/137/36 44/136/36 43/135/36
f 50/142/37 49/141/37 48/140/37 47/139/37
f 44/146/38 50/145/38 47/144/38 43/143/38
f 47/154/40 48/153/40 46/152/40 43/151/40
f 45/158/41 49/157/41 50/156/41 44/155/41
usemtl mat23
f 48/150/39 49/149/39 45/148/39 46/147/39
o group98224868
g mesh98224868
usemtl mat10
f 54/162/42 53/161/42 52/160/42 51/159/42
f 58/166/43 57/165/43 56/164/43 55/163/43
f 52/170/44 58/169/44 55/168/44 51/167/44
f 56/174/45 57/173/45 53/172/45 54/171/45
f 55/178/46 56/177/46 54/176/46 51/175/46
f 53/182/47 57/181/47 58/180/47 52/179/47
o group272358100
g mesh272358100
usemtl mat8
f 62/186/48 61/185/48 60/184/48 59/183/48
f 66/190/49 65/189/49 64/188/49 63/187/49
f 60/194/50 66/193/50 63/192/50 59/191/50
f 64/198/51 65/197/51 61/196/51 62/195/51
f 63/202/52 64/201/52 62/200/52 59/199/52
f 61/206/53 65/205/53 66/204/53 60/203/53
o group1381166309
g mesh1381166309
usemtl mat8
f 70/210/54 69/209/54 68/208/54 67/207/54
f 74/214/55 73/213/55 72/212/55 71/211/55
f 68/218/56 74/217/56 71/216/56 67/215/56
f 72/222/57 73/221/57 69/220/57 70/219/57
f 71/226/58 72/225/58 70/224/58 67/223/58
f 69/230/59 73/229/59 74/228/59 68/227/59
o group594200690
g mesh594200690
usemtl mat10
f 78/234/60 77/233/60 76/232/60 75/231/60
f 82/238/61 81/237/61 80/236/61 79/235/61
f 76/242/62 82/241/62 79/240/62 75/239/62
f 80/246/63 81/245/63 77/244/63 78/243/63
f 79/250/64 80/249/64 78/248/64 75/247/64
f 77/254/65 81/253/65 82/252/65 76/251/65
o group430116289
g mesh430116289
usemtl mat10
f 86/258/66 85/257/66 84/256/66 83/255/66
f 90/262/67 89/261/67 88/260/67 87/259/67
f 84/266/68 90/265/68 87/264/68 83/263/68
f 88/270/69 89/269/69 85/268/69 86/267/69
f 87/274/70 88/273/70 86/272/70 83/271/70
f 85/278/71 89/277/71 90/276/71 84/275/71
o group731436979
g mesh731436979
usemtl mat10
f 94/282/72 93/281/72 92/280/72 91/279/72
f 98/286/73 97/285/73 96/284/73 95/283/73
f 92/290/74 98/289/74 95/288/74 91/287/74
f 96/294/75 97/293/75 93/292/75 94/291/75
f 95/298/76 96/297/76 94/296/76 91/295/76
f 93/302/77 97/301/77 98/300/77 92/299/77
o group506490700
g mesh506490700
usemtl mat10
f 102/306/78 101/305/78 100/304/78 99/303/78
f 106/310/79 105/309/79 104/308/79 103/307/79
f 100/314/80 106/313/80 103/312/80 99/311/80
f 104/318/81 105/317/81 101/316/81 102/315/81
f 103/322/82 104/321/82 102/320/82 99/319/82
f 101/326/83 105/325/83 106/324/83 100/323/83
o group1646069577
g mesh1646069577
usemtl mat10
f 110/330/84 109/329/84 108/328/84 107/327/84
f 114/334/85 113/333/85 112/332/85 111/331/85
f 108/338/86 114/337/86 111/336/86 107/335/86
f 112/342/87 113/341/87 109/340/87 110/339/87
f 111/346/88 112/345/88 110/344/88 107/343/88
f 109/350/89 113/349/89 114/348/89 108/347/89
o group1253557959
g mesh1253557959
usemtl mat10
f 118/354/90 117/353/90 116/352/90 115/351/90
f 122/358/91 121/357/91 120/356/91 119/355/91
f 116/362/92 122/361/92 119/360/92 115/359/92
f 120/366/93 121/365/93 117/364/93 118/363/93
f 119/370/94 120/369/94 118/368/94 115/367/94
f 117/374/95 121/373/95 122/372/95 116/371/95
o group172045382
g mesh172045382
usemtl mat10
f 126/378/96 125/377/96 124/376/96 123/375/96
f 130/382/97 129/381/97 128/380/97 127/379/97
f 124/386/98 130/385/98 127/384/98 123/383/98
f 128/390/99 129/389/99 125/388/99 126/387/99
f 127/394/100 128/393/100 126/392/100 123/391/100
f 125/398/101 129/397/101 130/396/101 124/395/101
o group923022377
g mesh923022377
usemtl mat10
f 134/402/102 133/401/102 132/400/102 131/399/102
f 138/406/103 137/405/103 136/404/103 135/403/103
f 132/410/104 138/409/104 135/408/104 131/407/104
f 136/414/105 137/413/105 133/412/105 134/411/105
f 135/418/106 136/417/106 134/416/106 131/415/106
f 133/422/107 137/421/107 138/420/107 132/419/107
